<?xml version="1.0" encoding="UTF-8"?><svg id="Layer_1_copy" xmlns="http://www.w3.org/2000/svg" viewBox="0 0 177.72 155.7"><defs><style>.cls-1{fill:#fff;}.cls-2{fill:#0b54c4;}.cls-3{fill:none;}.cls-4{fill:#1654b2;}.cls-5{fill:#c9a12c;}</style></defs><path class="cls-3" d="M119.17,80.69c2.65,4.1,5.41,7.67,6.66,12.26l-16.3,5.66c-5.19-11.44-15.79-17.5-28.44-16.24-5.69.57-11.11,2.98-15.24,6.83-3.05,2.84-5.34,6.23-6.85,9.88,14.02,8.26,28.99,14.75,44.62,19.72,12.7,4.04,39.85,11.25,50.73,1.88,1.79-1.54,2.69-3.91,2.86-6.33.72-10.2-9.87-22.18-16.79-29.01-4.27-4.21-8.79-8-13.56-11.51-1.73,2.88-4.33,5.26-7.69,6.86Z"/><path class="cls-3" d="M83.25,137.56l21.34.08c-15.96-4.32-31.39-10.37-45.98-18.1,1.05,2.82,2.59,5.5,4.62,7.93,5.05,6.02,12.08,10.06,20.02,10.09Z"/><path class="cls-3" d="M39.91,35.47c-5.56,1.28-10.8,3.37-15.09,7.35-9,8.35-5.63,19.63.62,28.48,3.82,5.41,8.39,9.97,13.49,14.11l.19-42.16c.01-2.66.29-5.25.79-7.77Z"/><path class="cls-2" d="M47.35,82.74c3.74-8.66,7.42-13.22,15.04-18.5,0-1.4-.95-2-1.53-2.93-3.17-5.17-5.28-11.12-4.72-17.22,1.24-13.59,9.41-23.03,22.49-26.23,8.92-2.18,18.68.63,25.11,6.8,2.57,2.46,4.18,5.28,6.21,8,.37,1.36,11.54-3.27,12.64-3.74.54-.23,2.25-.19,2.05-1.09-1.23-5.44-5.41-8.49-4.46-9.74,1.45-1.9,5.08.96,12.15-5.14,3.42-2.94,5.44-7.32,5.5-12.03l-55.41.02c-3.38,0-6.42.81-9.5,1.55-4.97,1.19-9.34,3.23-13.44,6.27-1.98,1.46-4.07,2.44-5.82,4.4-2.54,2.84-4.99,5.46-7.06,8.74-2.27,3.59-4.3,7.49-5.18,11.71,2.83-.05,5.56.04,8.04.28-2.78.34-5.58.73-8.3,1.3-.03.23-.08.46-.1.69-.21,2.06-1.23,3.94-1.24,5.98l-.14,16.68v27.45c1.18.94,2.37,1.86,3.6,2.75,4.87,3.56,9.9,6.86,15.05,9.92,5.41-13,18.71-19.44,32.55-16.5,3.43.73,6.68,2.44,9.74,4.32,4.14,2.55,6.82,6.81,9.38,10.89,4.32-1,8.24-2.54,12.31-4.07.71-.27,2.02-.33,2.4-1.14-1.08-2.67-2.27-5.31-3.93-7.65-.98-1.38-2.5-2.27-2.57-4.28,3.09-1.27,6.08-3.76,8.02-6.87-2.63-1.91-5.34-3.74-8.13-5.5-.54-.34-1.94-1.62-2.33-.71l-4.2,9.6-7.62-11.4-23.06.12c-8.81.05-18.25,4.73-25.02,9.83-1.48,1.12-2.61,2.56-4.13,3.3-.15.07-.28.25-.4.36-.12.98-.91,1.74-1.81,2.11-.42.17-.68.55-1.07.75-.43.22-.36.8-1.09.91Z"/><path class="cls-2" d="M40.41,116.54c.49,4.65,1.88,8.69,3.96,12.86l1.58,3.17c3.63,7.29,10.2,12.56,17.18,16.87,4.06,2.51,13.46,5.33,18.1,5.34l56.19.11c.71-2.35-.38-4.34-1.22-6.48-.9-2.31-2.3-4.27-4.03-5.81-7.7-.5-15.29-1.84-23.1-3.79-.32-.08-.63-.17-.95-.25l-24.03-.02c-4.1,0-7.98-1.26-11.73-2.79-2.96-1.21-5.46-3.44-7.86-5.63-3.3-2.99-5.29-6.97-6.86-11.1-4.9-2.63-9.71-5.43-14.4-8.43-1.17-.75-2.35-1.53-3.55-2.34v3.06c0,1.96.54,3.46.73,5.22Z"/><path class="cls-4" d="M72.36,135.75c3.75,1.53,7.63,2.79,11.73,2.79l24.03.02c-1.18-.3-2.35-.6-3.53-.92l-21.34-.08c-7.94-.03-14.97-4.06-20.02-10.09-2.03-2.42-3.57-5.11-4.62-7.93-.33-.17-.65-.35-.97-.53,1.57,4.13,3.56,8.1,6.86,11.1,2.4,2.18,4.9,4.42,7.86,5.63Z"/><path class="cls-4" d="M118.2,80.25c.07,2,1.59,2.9,2.57,4.28,1.66,2.35,2.85,4.98,3.93,7.65-.37.81-1.68.87-2.4,1.14-4.07,1.53-7.98,3.07-12.31,4.07-2.56-4.08-5.24-8.34-9.38-10.89-3.06-1.89-6.31-3.6-9.74-4.32-13.84-2.93-27.13,3.51-32.55,16.5.23.14.46.27.68.4,1.51-3.65,3.8-7.04,6.85-9.88,4.13-3.85,9.55-6.26,15.24-6.83,12.65-1.26,23.24,4.8,28.44,16.24l16.3-5.66c-1.25-4.59-4.01-8.16-6.66-12.26,3.36-1.6,5.96-3.98,7.69-6.86-.21-.16-.43-.31-.64-.46-1.94,3.11-4.93,5.6-8.02,6.87Z"/><path class="cls-4" d="M80.87,65.48l23.06-.12-.56-.84-20.51.05c-12.05.03-23.48,5.26-31.15,14.04,1.53-.74,2.65-2.18,4.13-3.3,6.77-5.1,16.22-9.78,25.02-9.83Z"/><path class="cls-4" d="M46.61,21.91c2.07-3.28,4.52-5.9,7.06-8.74,1.75-1.96,3.84-2.93,5.82-4.4,4.1-3.04,8.47-5.07,13.44-6.27,3.08-.74,6.12-1.55,9.5-1.55l55.41-.02c-.06,4.71-2.08,9.08-5.5,12.03-7.07,6.1-10.7,3.24-12.15,5.14-.95,1.25,3.23,4.3,4.46,9.74.2.89-1.51.85-2.05,1.09-1.09.47-12.27,5.1-12.64,3.74-2.04-2.72-3.65-5.54-6.21-8-6.43-6.17-16.18-8.97-25.11-6.8-13.09,3.2-21.25,12.63-22.49,26.23-.56,6.1,1.55,12.05,4.72,17.22.57.94,1.53,1.53,1.53,2.93-7.62,5.28-11.3,9.84-15.04,18.5.73-.11.66-.69,1.09-.91,2.84-7.31,8.57-13.34,15.6-17.57-8.2-9.32-9.38-21.49-3.66-32.02,6.68-12.31,21.8-17.67,34.8-12.24,6.72,2.8,11.55,7.9,14.46,14.43l16.22-5.73c-1.08-3.88-3.27-6.74-5.03-10.47,10.21-.19,17.9-8.06,17.86-18.23l-54.3.06c-20.65.02-39.29,14.16-44.07,33.59.37-.01.74-.02,1.11-.02.88-4.23,2.91-8.12,5.18-11.71Z"/><path class="cls-4" d="M136.2,148.41c.84,2.14,1.92,4.13,1.22,6.48l-56.19-.11c-4.64,0-14.04-2.83-18.1-5.34-6.99-4.31-13.55-9.59-17.18-16.87l-1.58-3.17c-2.08-4.17-3.47-8.21-3.96-12.86-.19-1.76-.73-3.27-.73-5.22v-3.06c-.29-.2-.59-.4-.88-.6,0,1.49.05,3.01.14,4.64,1.35,22.97,20.12,43.14,43.49,43.21l56.18.19c.09-5.09-1.89-9.73-5.17-13.02-.43-.02-.86-.05-1.29-.07,1.74,1.54,3.13,3.5,4.03,5.81Z"/><path class="cls-4" d="M39.81,41.87c.02-2.04,1.04-3.92,1.24-5.98.02-.23.07-.46.1-.69-.42.09-.83.18-1.25.28-.5,2.52-.78,5.11-.79,7.77l-.19,42.16c.25.2.5.4.75.6v-27.45s.13-16.68.13-16.68Z"/><path class="cls-5" d="M138.86,143.81c-1.79,0-3.63-.05-5.46-.14-.43-.02-.86-.05-1.3-.07-7.25-.47-14.87-1.72-23.28-3.82l-.95-.25c-1.18-.3-2.37-.6-3.54-.92-16.09-4.36-31.63-10.47-46.19-18.18l-.98-.53c-4.99-2.67-9.86-5.52-14.47-8.47-1.17-.75-2.37-1.54-3.57-2.35l-.89-.6c-11.01-7.54-25.66-19.47-32.93-33.49-3.09-5.96-4.45-11.03-4.3-15.97.42-13.49,10.64-19.95,19.14-22.99,5.44-1.95,12.59-3.15,20.13-3.39.35-.01.69-.02,1.03-.02.6-.01,1.12-.02,1.62-.02,2.34,0,4.57.1,6.62.3l9.11.88-9.09,1.11c-2.3.28-5.31.68-8.22,1.29-.41.09-.82.18-1.23.27-6.33,1.46-10.98,3.72-14.63,7.1-9.69,8.99-3.69,20.88.76,27.16,3.47,4.91,7.82,9.46,13.3,13.91l.74.59c1.3,1.03,2.47,1.93,3.56,2.73,4.72,3.45,9.76,6.77,14.97,9.87l.68.4c13.48,7.94,28.43,14.55,44.41,19.63,9.23,2.93,22.58,6.43,33.81,6.43,7.24,0,12.61-1.46,15.96-4.35,1.46-1.25,2.35-3.26,2.52-5.65.51-7.31-5.19-17.08-16.5-28.23-4.1-4.05-8.5-7.78-13.45-11.41l-.64-.46c-2.6-1.88-5.32-3.72-8.08-5.47-.11-.07-.25-.17-.41-.29-.15-.11-.43-.31-.66-.45l-4.75,10.85-18.99-28.41-.03-.23c-.13-1.07-.71-1.9-1.37-2.86-.31-.45-.63-.92-.94-1.44l-.46-.8.76-.52c1.43-.99,3.07-1.09,4.51-1.17.47-.03.94-.05,1.4-.11l15.31-1.98c.74-.1,1.44-.15,2.14-.2.56-.04,1.12-.08,1.7-.15l7.23-.83c.22-.02.44-.06.66-.1.45-.08.92-.15,1.42-.15.72,0,1.35.17,1.92.52l.63.39-.19.72c-.29,1.12-.93,2.42-1.6,3.81-.75,1.54-1.69,3.47-1.63,4.36v.21s-.06.2-.06.2c-.07.18-.16.33-.24.45l.08.35-.07.04c18.73,11.83,50.76,38.47,52.73,63.82.55,7.05-1.29,13.09-5.47,17.93-5.33,6.18-14.57,10.16-25.37,10.91-2.29.16-4.62.24-6.93.24Z"/><path class="cls-1" d="M42.94,33.6c2.28,0,4.48.1,6.52.29-2.78.34-5.58.73-8.3,1.3-.42.09-.83.18-1.25.28-5.56,1.28-10.8,3.37-15.09,7.35-9,8.35-5.63,19.63.62,28.48,3.82,5.41,8.39,9.97,13.49,14.11.25.2.5.4.75.6,1.18.94,2.37,1.86,3.6,2.75,4.87,3.56,9.9,6.86,15.05,9.92.23.14.46.27.68.4,14.02,8.26,28.99,14.75,44.62,19.72,8.14,2.59,22.2,6.48,34.12,6.48,6.69,0,12.7-1.23,16.61-4.59,1.79-1.54,2.69-3.91,2.86-6.33.72-10.2-9.87-22.18-16.79-29.01-4.27-4.21-8.79-8-13.56-11.51-.21-.16-.43-.31-.64-.46-2.63-1.91-5.34-3.74-8.13-5.5-.4-.25-1.28-1.03-1.87-1.03-.2,0-.36.09-.47.32l-4.2,9.6-7.62-11.4-.56-.84-9.67-14.47c-.24-1.86-1.46-3.01-2.43-4.68,1.62-1.12,3.63-.88,5.47-1.11l15.31-1.98c1.33-.17,2.52-.2,3.82-.35l7.23-.83c.65-.07,1.31-.25,1.96-.25.47,0,.94.09,1.4.37-.65,2.46-3.39,6.5-3.27,8.49-.1.27-.39.51-.35.68-.46.29-.47.66-.36,1,.08.26.52.21.75.26,19.77,12.45,50.49,38.51,52.41,63.14,1.42,18.2-13.97,26.65-29.91,27.77-2.31.16-4.59.24-6.86.24-1.81,0-3.61-.05-5.41-.14-.43-.02-.86-.05-1.29-.07-7.7-.5-15.29-1.84-23.1-3.79-.32-.08-.63-.17-.95-.25-1.18-.3-2.35-.6-3.53-.92-15.96-4.32-31.39-10.37-45.98-18.1-.33-.17-.65-.35-.97-.53-4.9-2.63-9.71-5.43-14.4-8.43-1.17-.75-2.35-1.53-3.55-2.34-.29-.2-.59-.4-.88-.6-12.49-8.55-25.94-20.27-32.6-33.12-2.53-4.88-4.36-10.02-4.19-15.48.36-11.48,8.33-18.45,18.48-22.08,5.69-2.04,12.99-3.11,19.83-3.33.37-.01.74-.02,1.11-.02.51,0,1.02-.01,1.52-.01M42.94,31.6c-.52,0-1.04,0-1.56.01h-.09c-.35,0-.69.01-1.04.03-7.65.24-14.9,1.47-20.44,3.45C7.39,39.53.36,48.02.01,58.99c-.16,5.12,1.24,10.35,4.41,16.46,7.36,14.2,22.14,26.25,33.25,33.85.3.2.6.41.89.61,1.36.92,2.53,1.69,3.59,2.37,4.63,2.96,9.53,5.83,14.54,8.51l.41.22c.19.1.38.21.57.31,14.62,7.74,30.23,13.88,46.4,18.26,1.18.32,2.37.62,3.56.93l.41.11c.18.05.36.1.55.14,8.48,2.11,16.15,3.37,23.46,3.84.44.03.87.05,1.31.07,1.85.1,3.7.15,5.51.15,2.34,0,4.69-.08,7-.24,11.22-.79,20.48-4.79,26.06-11.26,4.36-5.05,6.28-11.33,5.71-18.66-.89-11.47-7.63-24.03-20.04-37.35-12.42-13.32-26.38-22.92-32.54-26.85,0-.02.01-.03.02-.05l.14-.4-.03-.42c-.04-.64.95-2.65,1.53-3.86.7-1.43,1.35-2.78,1.67-3.99l.38-1.44-1.27-.78c-.73-.45-1.53-.67-2.45-.67-.58,0-1.11.09-1.58.17-.2.03-.4.07-.61.09l-7.23.83c-.55.06-1.09.1-1.66.15-.7.05-1.41.11-2.19.21l-15.31,1.98c-.41.05-.86.08-1.33.11-1.5.09-3.36.2-5.02,1.35l-1.51,1.05.92,1.6c.33.56.67,1.07.98,1.51.7,1.02,1.1,1.63,1.2,2.42l.06.47.26.39,9.67,14.47.56.84,7.62,11.4,2.03,3.04,1.47-3.35,3.53-8.07s.07.05.1.07c2.75,1.74,5.45,3.56,8.02,5.43l.31.22c.11.08.22.15.33.23,4.91,3.61,9.28,7.31,13.34,11.32,11.09,10.94,16.69,20.43,16.2,27.45-.15,2.12-.92,3.88-2.17,4.96-3.17,2.73-8.32,4.11-15.31,4.11-11.1,0-24.35-3.47-33.51-6.38-15.92-5.06-30.79-11.63-44.21-19.54l-.27-.16-.4-.24c-5.18-3.08-10.19-6.38-14.89-9.81-1.09-.79-2.24-1.68-3.53-2.7l-.14-.11c-.2-.16-.4-.32-.6-.48-5.41-4.39-9.7-8.87-13.12-13.71-4.25-6.02-10.03-17.39-.89-25.85,3.52-3.27,8.03-5.45,14.18-6.86.4-.09.8-.18,1.21-.27,2.88-.6,5.86-.99,8.14-1.27l18.18-2.22-18.23-1.75c-2.08-.2-4.34-.3-6.71-.3h0Z"/></svg>